<?xml version="1.0" encoding="utf-8"?>
<!-- Generator: Adobe Illustrator 18.0.0, SVG Export Plug-In . SVG Version: 6.00 Build 0)  -->
<!DOCTYPE svg PUBLIC "-//W3C//DTD SVG 1.1//EN" "http://www.w3.org/Graphics/SVG/1.1/DTD/svg11.dtd">
<svg version="1.1" id="logo" xmlns="http://www.w3.org/2000/svg" xmlns:xlink="http://www.w3.org/1999/xlink" x="0px" y="0px"
	 viewBox="0 0 300 300" enable-background="new 0 0 300 300" xml:space="preserve">
<circle id="circle-background" cx="150" cy="150" r="150"/>
<g id="paper-stack">
	<polygon id="paper-stack--3_1_" fill="#FFFFFF" points="161.4,227.5 60.9,179.4 43.4,189.3 160.5,245.2 256.6,183.4 240.9,176.3 	
		"/>
	<polygon id="paper-stack--3" fill="#FFFFFF" points="161.4,199.9 60.9,151.9 43.4,161.7 160.5,217.6 256.6,155.9 240.9,148.7 	"/>
	<path id="paper-stack--2" fill="#FFFFFF" d="M220.1,138.8c-6.3,4.1-13.9,6.3-21.4,6.3h-0.1l-95.2-0.4c-5.8,0-11.7-1.3-17-3.8
		l-29.7-14.2l-13.3,7.5l117,55.8l96.1-61.7l-11.7-5.3L220.1,138.8z"/>
	<path id="paper-stack--1" fill="#FFFFFF" d="M102.2,136l46.8-31.3l49.3,31.7c5.9,0,11.8-1.8,16.8-4.9l41.3-26.6L144.7,53.6
		L43.4,110.9l46.5,22.3C93.8,135,98,135.8,102.2,136z"/>
</g>
</svg>
